<?xml version="1.0" standalone="no"?>
<!DOCTYPE svg PUBLIC "-//W3C//DTD SVG 20010904//EN"
 "http://www.w3.org/TR/2001/REC-SVG-20010904/DTD/svg10.dtd">
<svg version="1.0" xmlns="http://www.w3.org/2000/svg"
 width="1754.000000pt" height="455.000000pt" viewBox="0 0 1754.000000 455.000000"
 preserveAspectRatio="xMidYMid meet">

<g transform="translate(0.000000,455.000000) scale(0.100000,-0.100000)"
fill="#000000" stroke="none">
<path d="M1831 3355 c-399 -89 -687 -386 -756 -784 -18 -100 -21 -678 -4 -781
67 -425 399 -750 823 -809 100 -14 632 -14 732 0 416 58 742 369 819 784 14
73 16 145 13 448 -4 339 -6 367 -27 442 -94 333 -334 579 -667 682 l-89 27
-390 3 c-307 2 -404 -1 -454 -12z m864 -199 c252 -74 449 -259 530 -496 39
-115 48 -227 42 -552 -4 -256 -7 -303 -25 -369 -74 -272 -287 -481 -559 -550
-77 -19 -106 -20 -450 -17 l-368 3 -80 28 c-210 74 -363 209 -455 402 -65 136
-71 177 -77 485 -6 315 4 454 42 568 90 270 333 472 620 515 17 3 185 4 375 2
294 -2 354 -4 405 -19z"/>
<path d="M2072 2910 c-18 -11 -41 -34 -52 -52 -19 -32 -20 -52 -20 -656 l0
-624 132 127 133 127 128 -131 127 -131 -2 640 -3 639 -34 35 c-52 53 -61 52
-137 -25 -38 -38 -73 -69 -79 -69 -6 0 -42 32 -80 70 -38 39 -72 70 -75 70 -3
0 -20 -9 -38 -20z"/>
<path d="M1790 2859 c-139 -73 -206 -135 -238 -222 -21 -56 -22 -78 -29 -567
-6 -457 -5 -510 9 -510 25 0 127 81 195 153 75 80 147 219 168 324 12 59 15
150 13 478 l-3 404 -115 -60z"/>
<path d="M2612 2484 c4 -428 4 -441 27 -504 38 -107 92 -200 156 -269 64 -69
168 -151 191 -151 12 0 14 58 13 353 0 193 -4 431 -8 527 -7 161 -9 179 -33
225 -40 75 -101 127 -231 195 l-118 62 3 -438z"/>
<path d="M11514 3293 c-54 -10 -90 -99 -62 -153 28 -53 126 -76 193 -45 36 18
55 51 55 95 0 85 -73 125 -186 103z"/>
<path d="M4049 3278 c-4 -13 -105 -1165 -102 -1170 2 -5 53 -8 113 -8 l109 0
5 33 c3 17 20 192 36 387 17 195 32 359 34 365 1 5 47 -168 102 -385 l99 -395
102 -3 102 -3 10 38 c5 21 51 200 101 398 51 198 93 361 94 362 1 2 17 -165
35 -370 17 -204 34 -384 37 -399 l6 -28 109 0 c98 0 109 2 109 18 0 9 -22 271
-50 582 -27 311 -50 568 -50 573 0 4 -66 6 -147 5 l-146 -3 -103 -400 c-56
-220 -103 -402 -104 -405 -1 -4 -146 555 -204 785 l-6 25 -145 0 c-80 0 -145
-1 -146 -2z"/>
<path d="M8072 3183 l3 -98 148 -3 147 -3 0 -490 0 -490 113 3 112 3 3 487 2
487 143 3 142 3 3 98 3 97 -411 0 -411 0 3 -97z"/>
<path d="M14461 3093 c-7 -32 -17 -75 -22 -95 l-10 -38 -54 0 -55 0 0 -95 0
-95 55 0 55 0 0 -233 c0 -181 3 -245 15 -285 33 -110 119 -164 262 -163 46 0
108 5 138 11 l55 11 0 84 0 84 -99 -6 c-97 -6 -100 -5 -125 20 l-26 26 0 226
0 225 105 0 105 0 0 95 0 95 -105 0 -105 0 0 95 0 95 -88 0 -89 0 -12 -57z"/>
<path d="M15933 2970 c-196 -41 -296 -191 -296 -440 0 -296 138 -450 404 -450
137 0 252 51 313 138 88 128 108 369 44 540 -29 79 -113 162 -193 192 -67 25
-202 35 -272 20z m174 -191 c72 -27 102 -86 110 -214 13 -211 -53 -305 -204
-293 -67 6 -100 29 -133 94 -22 43 -25 62 -25 159 0 193 47 261 182 264 23 1
54 -4 70 -10z"/>
<path d="M5513 2952 c-75 -27 -126 -64 -162 -118 -90 -136 -106 -396 -34 -557
51 -113 151 -175 313 -192 104 -11 271 21 339 64 16 10 8 47 -24 125 l-15 35
-36 -15 c-50 -21 -167 -33 -242 -24 -84 10 -126 42 -147 112 -8 28 -15 58 -15
65 0 10 51 13 255 13 l255 0 4 23 c21 100 11 225 -23 303 -28 62 -93 128 -154
155 -73 32 -238 38 -314 11z m216 -170 c49 -25 71 -60 78 -125 l6 -57 -162 0
-162 0 6 38 c11 62 47 123 85 143 44 24 105 24 149 1z"/>
<path d="M6360 2951 c-80 -26 -111 -44 -157 -94 -59 -64 -84 -139 -90 -272
-10 -210 45 -341 171 -408 34 -18 57 -22 136 -22 103 0 152 17 214 74 l28 26
-4 -92 c-6 -109 -26 -152 -78 -170 -50 -17 -148 -16 -238 3 -42 9 -83 17 -91
18 -20 2 -65 -145 -48 -156 52 -34 219 -62 336 -56 127 7 194 33 254 97 76 81
77 88 77 598 l0 443 -22 5 c-131 29 -405 33 -488 6z m300 -350 l0 -189 -32
-28 c-47 -39 -95 -57 -155 -57 -66 0 -99 21 -125 80 -28 63 -24 250 7 303 34
58 91 80 207 80 l98 0 0 -189z"/>
<path d="M7131 2954 c-47 -8 -86 -15 -87 -17 -1 -1 5 -36 15 -77 l17 -75 84 5
c151 9 263 5 294 -11 40 -19 66 -58 73 -106 l5 -41 -168 -3 c-161 -4 -172 -5
-226 -32 -123 -60 -175 -191 -133 -333 54 -182 283 -233 475 -104 25 16 48 30
51 30 4 0 14 -20 23 -45 l18 -45 84 0 84 0 0 318 c0 354 -3 377 -65 449 -20
24 -58 51 -97 69 -59 27 -72 28 -213 31 -97 1 -180 -3 -234 -13z m399 -548 l0
-75 -64 -31 c-66 -33 -152 -44 -204 -26 -45 15 -67 103 -38 155 23 42 52 50
184 51 l122 0 0 -74z"/>
<path d="M9111 2949 c-118 -38 -193 -139 -223 -299 -13 -72 -4 -262 16 -325
35 -112 113 -188 226 -223 83 -25 255 -22 345 6 39 12 80 29 93 37 25 18 25
19 -10 112 l-19 52 -34 -15 c-87 -36 -283 -34 -334 3 -32 24 -71 98 -71 135
l0 28 254 0 255 0 7 46 c4 26 4 86 2 134 -9 145 -67 244 -176 297 -50 24 -70
28 -162 30 -84 2 -118 -1 -169 -18z m229 -167 c43 -21 69 -65 77 -131 l6 -51
-162 0 c-180 0 -172 -4 -150 75 23 83 74 124 154 125 22 0 56 -8 75 -18z"/>
<path d="M9960 2948 c-110 -39 -177 -107 -217 -222 -27 -76 -26 -317 1 -400
36 -107 115 -187 222 -221 105 -34 305 -21 410 27 28 13 28 11 -3 116 -13 48
-17 53 -36 48 -12 -4 -60 -12 -107 -18 -115 -14 -188 0 -235 48 -43 43 -57 95
-57 211 0 122 29 190 94 225 37 20 57 23 143 22 55 -1 119 -6 141 -11 l41 -10
24 74 c26 85 27 82 -56 109 -31 10 -98 18 -175 21 -111 3 -132 1 -190 -19z"/>
<path d="M10885 2945 c-33 -14 -80 -39 -104 -55 -24 -17 -45 -30 -46 -28 -2 2
-13 25 -24 51 l-21 48 -82 -3 -83 -3 0 -425 0 -425 105 0 105 0 5 299 5 298
64 39 c101 61 202 64 244 7 30 -40 35 -103 36 -390 l1 -258 105 0 105 0 0 310
c0 184 -4 329 -11 360 -16 75 -64 139 -128 172 -73 38 -187 39 -276 3z"/>
<path d="M12064 2950 c-154 -50 -243 -203 -244 -416 0 -156 44 -290 117 -354
87 -76 224 -110 370 -90 105 14 193 45 193 68 0 28 -37 137 -46 137 -5 0 -49
-7 -97 -14 -140 -21 -217 -4 -270 59 -35 41 -47 89 -47 186 0 133 31 202 110
245 30 17 216 18 272 2 l37 -11 22 66 c12 37 24 72 26 79 3 7 -22 20 -64 34
-100 32 -294 37 -379 9z"/>
<path d="M12825 2957 c-122 -41 -195 -120 -229 -250 -35 -133 -29 -294 15
-413 32 -89 106 -156 201 -186 135 -41 321 -28 440 33 l37 19 -25 67 c-14 38
-27 70 -30 72 -2 2 -31 -4 -65 -14 -91 -25 -234 -23 -287 4 -45 23 -74 69 -86
134 l-7 37 255 0 c193 0 257 3 263 13 4 6 7 62 7 122 -1 134 -24 204 -91 276
-65 70 -125 92 -253 96 -68 2 -119 -2 -145 -10z m216 -180 c43 -28 69 -80 69
-134 l0 -43 -159 0 -160 0 6 38 c8 60 44 123 83 143 49 26 118 25 161 -4z"/>
<path d="M13813 2951 c-29 -10 -77 -34 -108 -55 l-56 -37 -21 51 -21 50 -83 0
-84 0 0 -430 0 -430 105 0 105 0 0 295 0 295 48 35 c57 42 121 65 178 65 53 0
99 -36 114 -88 6 -21 10 -158 10 -320 l0 -283 108 3 107 3 0 320 c0 288 -2
325 -19 374 -24 69 -94 141 -152 159 -60 17 -170 14 -231 -7z"/>
<path d="M15400 2961 c-46 -15 -85 -39 -121 -75 l-36 -36 -20 52 -20 53 -84 0
-84 0 0 -425 0 -425 105 0 105 0 5 297 5 298 49 35 c63 44 138 62 212 48 30
-5 56 -7 58 -4 2 3 11 41 21 85 12 55 14 81 6 89 -13 13 -167 19 -201 8z"/>
<path d="M11460 2530 l0 -431 108 3 107 3 0 425 0 425 -107 3 -108 3 0 -431z"/>
<path d="M7280 1666 l0 -105 -69 6 c-95 8 -135 -2 -182 -44 -66 -59 -88 -186
-53 -303 38 -130 165 -175 269 -95 l34 25 16 -30 c14 -26 21 -31 48 -28 l32 3
3 338 2 337 -50 0 -50 0 0 -104z m-8 -192 c14 -9 10 -228 -4 -246 -39 -47
-121 -64 -165 -33 -42 29 -57 150 -27 223 14 36 30 50 74 66 16 6 109 -2 122
-10z"/>
<path d="M4140 1748 c-112 -17 -171 -90 -192 -239 -15 -96 0 -237 30 -295 44
-86 115 -125 226 -126 67 0 162 17 170 31 2 3 -1 20 -5 37 l-9 32 -103 -5
c-89 -4 -106 -2 -133 15 -50 32 -68 82 -72 202 -5 123 7 178 48 223 l28 32
117 0 116 -1 8 31 c4 16 6 33 5 36 -5 8 -85 26 -139 32 -22 2 -65 0 -95 -5z"/>
<path d="M8290 1740 c-32 -11 -64 -30 -77 -47 -25 -31 -38 -97 -30 -149 12
-72 44 -96 245 -185 30 -13 60 -32 68 -43 20 -29 17 -80 -5 -107 -18 -22 -26
-24 -123 -24 -56 0 -117 3 -135 7 -28 6 -32 4 -38 -20 -3 -15 -8 -34 -11 -43
-6 -23 96 -44 211 -44 98 1 160 23 189 68 26 39 37 111 25 167 -14 64 -53 97
-164 140 -46 17 -98 41 -117 53 -28 20 -33 29 -36 69 -3 44 -1 48 30 64 27 14
51 16 140 11 l107 -6 10 37 c6 20 9 37 7 39 -8 8 -161 33 -199 33 -23 -1 -67
-9 -97 -20z"/>
<path d="M10065 1730 c-38 -42 11 -99 71 -84 30 8 48 47 34 73 -19 36 -77 42
-105 11z"/>
<path d="M10756 1737 c-26 -19 -18 -68 15 -86 54 -30 117 39 74 83 -20 19 -64
21 -89 3z"/>
<path d="M11785 1427 c-58 -178 -105 -327 -105 -331 0 -4 24 -6 53 -4 l52 3
21 60 21 60 131 3 130 3 19 -63 18 -63 53 -3 c39 -2 52 0 52 11 0 16 -194 619
-204 636 -4 6 -36 11 -71 11 l-64 0 -106 -323z m220 52 c25 -77 45 -145 45
-150 0 -5 -43 -9 -96 -9 -86 0 -95 2 -90 17 4 9 25 77 48 150 23 73 43 133 45
133 1 0 23 -63 48 -141z"/>
<path d="M15852 1743 c-22 -9 -33 -40 -23 -66 18 -48 104 -42 117 8 11 46 -42
79 -94 58z"/>
<path d="M5555 1658 c-3 -7 -8 -31 -13 -53 -7 -36 -11 -40 -40 -43 -30 -3 -32
-6 -32 -43 0 -37 2 -39 30 -39 l30 0 0 -142 c0 -116 3 -149 18 -177 27 -54 62
-74 129 -74 90 0 103 7 103 54 l0 40 -52 -6 c-88 -11 -92 -3 -96 164 l-4 141
66 0 66 0 0 40 0 40 -65 0 -65 0 0 55 0 55 -35 0 c-20 0 -38 -6 -40 -12z"/>
<path d="M12909 1615 c-12 -53 -13 -55 -46 -55 -32 0 -33 -1 -33 -40 0 -39 1
-40 35 -40 l35 0 0 -154 c0 -142 2 -155 23 -187 28 -42 88 -62 161 -51 l51 7
3 42 3 42 -61 -2 c-44 -2 -63 2 -70 13 -5 8 -10 77 -10 153 l0 137 60 0 60 0
0 40 0 40 -60 0 -60 0 0 55 0 55 -39 0 -40 0 -12 -55z"/>
<path d="M15119 1615 c-12 -53 -13 -55 -46 -55 -32 0 -33 -1 -33 -40 0 -39 1
-40 35 -40 l35 0 0 -154 c0 -142 2 -155 23 -187 28 -42 88 -62 161 -51 l51 7
3 42 3 42 -61 -2 c-44 -2 -63 2 -70 13 -5 8 -10 77 -10 153 l0 137 60 0 60 0
0 40 0 40 -60 0 -60 0 0 55 0 55 -39 0 -40 0 -12 -55z"/>
<path d="M6377 1566 c-95 -26 -147 -109 -147 -235 0 -154 60 -232 186 -247
155 -19 253 91 242 270 -8 121 -62 194 -158 215 -61 13 -62 13 -123 -3z m133
-96 c32 -17 53 -92 48 -165 -7 -80 -26 -111 -78 -126 -85 -26 -141 19 -148
121 -9 128 22 180 108 180 28 0 60 -4 70 -10z"/>
<path d="M11129 1571 c-84 -17 -139 -73 -158 -162 -22 -103 -3 -203 50 -263
73 -83 229 -86 309 -6 78 78 87 263 19 362 -36 51 -143 84 -220 69z m117 -106
c35 -24 46 -67 43 -154 -4 -67 -8 -83 -28 -105 -46 -49 -147 -42 -175 12 -35
70 -30 184 11 233 22 25 32 29 77 29 29 0 61 -6 72 -15z"/>
<path d="M13367 1566 c-88 -24 -137 -95 -145 -212 -11 -178 87 -289 240 -271
120 15 179 85 186 222 8 150 -46 240 -157 264 -62 13 -63 13 -124 -3z m148
-110 c29 -29 39 -77 33 -156 -7 -102 -63 -147 -148 -121 -49 14 -69 43 -77
109 -8 72 4 136 32 166 20 22 33 26 80 26 46 0 60 -4 80 -24z"/>
<path d="M14687 1566 c-95 -26 -147 -109 -147 -235 0 -154 60 -232 186 -247
155 -19 253 91 242 270 -8 121 -62 194 -158 215 -61 13 -62 13 -123 -3z m133
-96 c32 -17 53 -92 48 -165 -7 -80 -26 -111 -78 -126 -85 -26 -141 19 -148
121 -9 128 22 180 108 180 28 0 60 -4 70 -10z"/>
<path d="M4575 1556 c-39 -17 -79 -64 -97 -113 -7 -21 -13 -76 -13 -123 0
-163 68 -234 223 -233 49 0 91 6 116 16 34 15 38 20 31 44 -3 16 -9 31 -13 35
-4 4 -36 2 -72 -4 -109 -18 -166 8 -184 84 l-6 27 147 3 148 3 3 70 c4 92 -23
148 -88 182 -50 27 -145 31 -195 9z m140 -76 c15 -6 32 -24 40 -45 27 -64 26
-65 -89 -65 l-104 0 9 38 c15 67 76 98 144 72z"/>
<path d="M5134 1551 c-23 -10 -45 -24 -48 -30 -12 -18 -26 -13 -36 14 -8 21
-16 25 -50 25 l-40 0 2 -232 3 -233 50 0 50 0 3 168 2 167 41 27 c49 32 119
37 146 10 16 -15 18 -41 21 -197 l3 -180 50 0 49 0 0 173 c0 194 -7 231 -50
272 -26 25 -40 30 -93 32 -46 3 -73 -1 -103 -16z"/>
<path d="M6045 1554 c-16 -8 -38 -22 -47 -31 -16 -14 -18 -14 -27 11 -9 22
-16 26 -51 26 l-40 0 2 -232 3 -233 50 0 50 0 5 173 5 172 30 20 c21 14 47 20
86 20 l57 0 6 35 c4 20 4 40 1 45 -10 16 -97 12 -130 -6z"/>
<path d="M7592 1549 c-66 -33 -95 -91 -100 -198 -7 -138 20 -201 101 -243 29
-14 62 -21 107 -22 62 -1 155 18 165 34 3 4 0 22 -6 39 -11 30 -13 31 -48 24
-20 -5 -64 -8 -99 -8 -53 1 -66 5 -87 25 -13 14 -27 40 -31 58 l-6 32 145 0
146 0 7 37 c9 47 -10 140 -34 172 -37 51 -69 65 -145 69 -58 2 -80 -1 -115
-19z m169 -88 c19 -20 29 -40 29 -60 l0 -31 -100 0 c-109 0 -109 0 -89 59 22
64 110 82 160 32z"/>
<path d="M8825 1556 c-79 -34 -121 -131 -113 -260 8 -125 55 -183 164 -206 57
-12 169 2 200 25 16 11 16 16 4 44 -10 26 -17 31 -34 27 -108 -31 -196 -11
-221 48 -8 20 -15 40 -15 46 0 6 52 10 144 10 163 0 156 -4 156 83 -1 86 -46
161 -113 186 -39 15 -135 13 -172 -3z m144 -81 c32 -16 41 -33 41 -76 l0 -29
-100 0 c-62 0 -100 4 -100 10 0 6 6 26 14 44 26 62 85 83 145 51z"/>
<path d="M9375 1556 c-17 -7 -36 -20 -44 -29 -19 -23 -28 -21 -35 8 -5 21 -12
25 -46 25 l-40 0 0 -235 0 -235 50 0 50 0 2 171 3 172 28 21 c19 14 49 23 90
26 61 5 61 5 68 40 5 23 3 37 -4 42 -19 12 -89 8 -122 -6z"/>
<path d="M10404 1559 c-43 -12 -100 -78 -115 -131 -18 -69 -7 -195 22 -248 44
-82 163 -116 287 -81 43 12 49 22 33 64 -9 23 -11 23 -71 13 -125 -21 -180 26
-180 154 0 127 51 170 178 152 62 -8 64 -8 73 15 5 13 9 30 9 37 0 30 -162 47
-236 25z"/>
<path d="M13941 1559 c-13 -5 -36 -18 -52 -30 l-29 -20 -12 25 c-9 21 -18 26
-50 26 l-38 0 2 -232 3 -233 48 -3 47 -3 0 170 0 171 38 25 c54 36 92 41 122
17 25 -20 25 -23 28 -202 l4 -181 46 3 47 3 3 164 c2 111 6 169 15 179 14 18
85 51 108 52 8 0 24 -6 35 -14 17 -13 19 -31 24 -198 l5 -183 48 -3 47 -3 0
186 c0 209 -7 241 -62 275 -60 36 -156 21 -206 -32 l-23 -25 -38 39 c-35 34
-44 38 -87 37 -27 0 -60 -5 -73 -10z"/>
<path d="M15625 1554 c-16 -8 -38 -22 -47 -31 -16 -14 -18 -13 -29 11 -10 21
-19 26 -51 26 l-38 0 2 -232 3 -233 47 -3 48 -3 2 173 3 172 34 23 c26 17 48
23 91 23 l57 0 6 37 c4 24 2 40 -6 45 -21 13 -90 9 -122 -8z"/>
<path d="M9550 1547 c0 -7 33 -111 73 -232 l74 -220 58 -3 c32 -2 62 1 67 6 5
5 42 111 82 236 l74 226 -52 0 -53 0 -53 -175 c-30 -96 -57 -172 -61 -167 -4
4 -11 23 -17 42 -6 19 -29 95 -52 168 l-41 132 -50 0 c-33 0 -49 -4 -49 -13z"/>
<path d="M10062 1328 l3 -233 48 -3 47 -3 0 235 0 236 -50 0 -50 0 2 -232z"/>
<path d="M10750 1324 l0 -235 48 3 47 3 3 233 2 232 -50 0 -50 0 0 -236z"/>
<path d="M12320 1410 c0 -234 23 -296 116 -319 53 -14 132 4 177 39 32 26 33
26 46 -10 8 -26 15 -30 45 -30 l36 0 0 235 0 235 -50 0 -50 0 0 -165 0 -165
-40 -26 c-55 -37 -121 -43 -149 -15 -20 20 -21 31 -21 196 l0 175 -55 0 -55 0
0 -150z"/>
<path d="M15832 1328 l3 -233 50 0 50 0 3 233 2 232 -55 0 -55 0 2 -232z"/>
<path d="M16070 1520 l0 -39 120 -3 120 -3 -125 -148 c-119 -142 -125 -151
-125 -193 l0 -44 188 2 187 3 0 40 0 40 -122 3 c-68 1 -123 5 -123 8 0 3 56
72 125 153 110 130 125 153 125 185 l0 36 -185 0 -185 0 0 -40z"/>
</g>
</svg>
