<?xml version="1.0" encoding="UTF-8"?>
<svg id="Capa_2" data-name="Capa 2" xmlns="http://www.w3.org/2000/svg" viewBox="0 0 102.5 89.76">
  <g id="Capa_1-2" data-name="Capa 1">
    <g>
      <g>
        <rect y="19.27" width="102.5" height="12.85"/>
        <g>
          <g>
            <path d="M91.27,16.09h-19.21v-7c0-.07.62-.71.81-.79.75-.35,15.01-.44,16.62-.23.53.07,1.78.51,1.78,1.02v7Z"/>
            <path d="M88.07,4.89h-12.81l.2-4c.2-.34.5-.6.88-.72.9-.26,10.26-.21,10.93.12,1.33.65.65,3.35.8,4.6Z"/>
          </g>
          <path d="M66.46,16.09h-30.42c1.12-2.27,1.75-6.15,4.58-6.43,7-.69,15.23.5,22.36.1,1.12.34,3.02,5.02,3.48,6.33Z"/>
          <g>
            <path d="M30.44,16.09H11.23v-7c0-.07.62-.71.81-.79.75-.35,15.01-.44,16.62-.23.53.07,1.78.51,1.78,1.02v7Z"/>
            <path d="M27.24,4.89h-12.81l.2-4c.2-.34.5-.6.88-.72.9-.26,10.26-.21,10.93.12,1.33.65.65,3.35.8,4.6Z"/>
          </g>
        </g>
      </g>
      <g>
        <path d="M96.07,35.3v54.45H6.43v-54.45h89.65ZM83.26,43.31c.66-4.35-3.86-4.34-3.2,0-1.23-.04-2.59-.26-3.15,1.08-.36,2.1,1.45,2.3,3.15,2.11-.04,1.23-.26,2.59,1.08,3.15,2.1.36,2.3-1.45,2.11-3.15,1.23.04,2.59.26,3.15-1.08.36-2.1-1.45-2.3-3.15-2.11ZM17.03,43.31l-1.02,1.78c-.02.42.82,1.42,1.02,1.42h7.6c.29,0,1.23-1.27,1.02-1.78.02-.42-.82-1.42-1.02-1.42h-7.6ZM56.05,57.72v-13.41c0-.54-1.38-1.15-2.11-.94-.49.13-2.37,2.19-2.89,2.74-5.85,6.14-11.31,12.71-17.21,18.82-.67.63.3,2.39.8,2.39h11.81v13.41c0,.54,1.38,1.15,2.11.94.49-.13,2.37-2.19,2.89-2.74,5.85-6.14,11.31-12.71,17.21-18.82.67-.63-.3-2.39-.8-2.39h-11.81Z"/>
        <path d="M63.26,60.92l-13.61,14.81v-10.61c0-.07-.93-1-1-1h-9.4l13.61-14.81v10.61c0,.07.93,1,1,1h9.4Z"/>
      </g>
    </g>
  </g>
</svg>