<?xml version="1.0" encoding="UTF-8"?>
<svg id="Capa_2" data-name="Capa 2" xmlns="http://www.w3.org/2000/svg" viewBox="0 0 115.61 115.57">
  <defs>
    <style>
      .cls-1 {
        fill: #fff;
      }
    </style>
  </defs>
  <g id="Capa_1-2" data-name="Capa 1">
    <path class="cls-1" d="M17.15,61.66h4.47v-17.62c0-1.99,1.14-5.94,2.22-7.71,1.19-1.96,2.42-2.33,3.74-3.95l-8.82-1.61c-1.14-1.12-.67-7.09-.12-8.82h11.42c.18-4.81,3.13-8.67,7.81-9.81,12.42.62,26.38-1.23,38.62-.14,5.34.48,9.05,4.61,9.19,9.93l11.43.24.22,8.23-9.19,2.23c2.61,1.68,4.57,4,5.33,7.08.62,2.52,1.01,7.57,1.14,10.28.18,3.69.22,8.15-.52,11.68h4.47s0-60.31,0-60.31c0-1.8,8.41-1.57,9.81-.62l.56,2.16.06,52.33,5.47.24c1.45.71,1.37,8.44.54,9.48-1.03,1.31-4.41.48-6.01.69v39.22c1.6.22,4.97-.62,6.01.69.66.83,1.4,9.8-1.3,9.71-4.07-.79-17.14,1.2-20.09-.23-1.4-.68-1.34-7.96-.74-9.19.8-1.65,4.16-.81,5.71-.99v-39.22h-18.62c-1.76,0-4.02-4.29-4.01-5.99l-36.45.03c1.04,1.43-2.47,5.96-3.23,5.96h-19.11v38.47l.82.67,4.92.54c.12,1.94,1,8.85-.77,9.71-2.94,1.43-16.03-.56-20.09.23-2.71.08-1.96-8.88-1.3-9.71,1.03-1.31,4.41-.48,6.01-.69v-39.22c-7.06.95-7.09-1.49-6.49-7.72.4-4.1,3.28-2.39,6.49-2.7l.06-52.33.56-2.16c1.4-.95,9.81-1.17,9.81.62v60.32ZM13.18,4.08h-2.48v51.15h2.48V4.08ZM105.02,4.08h-2.48v51.15h2.48V4.08ZM83.67,31.38c-1.98-5.8-.21-14.66-8.17-15.41-8.63-.81-27.19-.84-35.79,0-7.59.74-5.79,9.91-7.67,15.41h51.63ZM31.43,38.42c-4.69.66-6.56,7.24-2.54,10.26,2.1,1.58,11.86,1.49,14.27.52,3.52-1.42,4.49-6.45.98-8.33-1.27-.68-11.31-2.65-12.71-2.45ZM83.07,38.46c-1.71.16-10.25,1.87-11.3,2.6-2.71,1.91-1.65,6.39,1.03,7.89,1.89,1.06,9.77,1.11,12.09.75,6.92-1.07,6.65-12.05-1.81-11.25ZM13.18,59.18H4.24v2.48h8.94v-2.48ZM111.47,59.18h-8.94v2.48h8.94v-2.48ZM13.18,65.63h-2.48v39.23h2.48v-39.23ZM105.02,65.63h-2.48v39.23h2.48v-39.23ZM4.24,108.82v2.48h14.89v-2.48H4.24ZM111.47,108.82h-14.89v2.48h14.89v-2.48Z"/>
  </g>
</svg>