<?xml version="1.0" encoding="UTF-8"?>
<svg id="Capa_2" data-name="Capa 2" xmlns="http://www.w3.org/2000/svg" viewBox="0 0 96.92 96.9">
  <g id="Capa_1-2" data-name="Capa 1">
    <g>
      <path d="M37.05,0h21.44l10.69,10.52c.46,0,5.35-5.73,6.42-6.46.35-.24.61-.49,1.08-.32l10.49,10.38-7.19,7.2c.58.91,3.74,3,3.24,3.98l-45.1,45.1c-2.68,2.25-4.61,3.39-7.79.95-9.77-7.52-18.55-20.52-28.56-28.27-1.44-1.84-2.42-3.82-1.26-6.12C12.09,24.15,24.82,12.24,37.05,0ZM54.97,10.53h-14.21l-14.18,14.26c-.09.5,6.41,6.97,6.98,6.97l21.41-21.23Z"/>
      <g>
        <path d="M82.44,53.35c4.75,7.63,11.9,16.95,14.02,25.76,3.91,16.3-17.96,24.45-26.26,11.11-4.13-6.64-1.91-12.02,1.12-18.44,3-6.34,7.29-12.57,11.12-18.42Z"/>
        <path d="M87.37,34.03c2.12,3.42,7.13,9.41,3.24,13.08-2.03,1.92-4.7,1.7-6.66-.19-3.71-3.58,1.19-9.63,3.43-12.89Z"/>
      </g>
    </g>
  </g>
</svg>