<?xml version="1.0" encoding="UTF-8"?>
<svg id="Capa_2" data-name="Capa 2" xmlns="http://www.w3.org/2000/svg" viewBox="0 0 84.29 98.74">
  <defs>
    <style>
      .cls-1 {
        fill: #fff;
      }
    </style>
  </defs>
  <g id="Capa_1-2" data-name="Capa 1">
    <path class="cls-1" d="M39.4,1.29C35.82.32,31.26-.18,27.57.06c-4.25.28-9.93,1.23-8.51,6.87l12.23,16.86c0,.46-6.79,5.54-7.29,5.59s-.82-.13-1.1-.51L11.06,12.82c-4.73-3.7-7.78,2.84-9.11,6.56-6.93,19.42,5.22,39.88,26,41.65,1.75.15,7.03-.53,8.04.18.57.69.76,1.57,1.29,2.29,6.76,9.14,14.13,20.74,21.42,29.09,5.98,6.85,16.29,8.98,22.44,1.2,5.47-6.92,2.96-12.87-1.27-19.3-6.63-10.07-15.01-19.53-21.79-29.57,1.16-3.98,2.55-7.97,2.89-12.15,1.11-13.66-8.15-27.87-21.58-31.49ZM31.17,8.61c13.94.87,23.47,13.14,20.71,26.91-1.09,5.45-4.98,9.17-1,14.75,7.63,10.69,16.3,20.81,23.72,31.7,3.12,6.76-3.53,10.94-8.47,5.52l-24.76-33.45c-3.73-3-8.58-1.06-12.91-1.59-13.79-1.67-22.43-14.34-19.16-27.73,3.32,2.95,6.97,11.58,11.11,12.81,2.21.66,4.91.91,7.02-.14,1.56-.77,7.97-5.56,9.31-6.85,2.71-2.59,3.46-6.14,2.44-9.71l-8-12.23Z"/>
  </g>
</svg>